# xmcd
#
# Track frame offsets:
#	150
#	12934
#	25117
#	43412
#	62087
#	74487
#	90145
#	115620
#	125960
#	143760
#	171087
#	186572
#	209500
#	224137
#	241930
#	255497
#
# Disc length: 3611
#
# Revision: 2
# Processed by: cddbd v1.5.1PL0 Copyright (c) Steve Scherf et al.
# Submitted via: CDex 1.51
# Normalized: r1:TRMNUM
#
DISCID=f20e1910
DTITLE=Hot Lips - more good music
DYEAR=1997
DGENRE=Jazz
TTITLE0=Take The A-Train
TTITLE1=Cotton Club Stomp
TTITLE2=Uvery Stable Blues
TTITLE3=Sweet Lorraine
TTITLE4=Oh! You Sweet Thing
TTITLE5=South Rampart Street Parade
TTITLE6=Black and Tan Fantasy
TTITLE7=Avalon
TTITLE8=Wolverine Blues
TTITLE9=Just a Gigolo
TTITLE10=The Chant
TTITLE11=Tollgate Blues
TTITLE12=Jungle Nights in Harlem
TTITLE13=Margie
TTITLE14=Kansas City Stomp
TTITLE15=Sideway
EXTD=YEAR: 1997
EXTT0=
EXTT1=
EXTT2=
EXTT3=
EXTT4=
EXTT5=
EXTT6=
EXTT7=
EXTT8=
EXTT9=
EXTT10=
EXTT11=
EXTT12=
EXTT13=
EXTT14=
EXTT15=
PLAYORDER=
